<svg width="120" height="100" viewBox="0 0 120 100" fill="none" xmlns="http://www.w3.org/2000/svg">
  <ellipse cx="55" cy="88" rx="35" ry="6" fill="rgba(0,0,0,0.08)"/>
  <rect x="30" y="35" width="50" height="45" rx="8" fill="#1E88E5"/>
  <rect x="35" y="40" width="40" height="30" rx="4" fill="#4FC3F7"/>
  <rect x="48" y="28" width="14" height="10" rx="3" fill="#0A3E8A"/>
  <rect x="42" y="22" width="26" height="8" rx="4" fill="#263238"/>
  <ellipse cx="55" cy="22" rx="16" ry="5" fill="#F5F5F5" stroke="#B0BEC5" stroke-width="1"/>
  <rect x="68" y="48" width="22" height="28" rx="3" fill="#0A3E8A"/>
  <rect x="71" y="52" width="16" height="10" rx="1" fill="#FFD54F"/>
  <circle cx="79" cy="57" r="3" fill="#263238"/>
  <path d="M85 30 L105 22 L108 28 L88 36 Z" fill="white"/>
  <path d="M88 36 L108 28 L110 32 L90 40 Z" fill="#E3F4FF"/>
  <circle cx="100" cy="25" r="2" fill="#00ACC1"/>
</svg>
